<?xml version="1.0" standalone="no"?>
<!DOCTYPE svg PUBLIC "-//W3C//DTD SVG 20010904//EN"
 "http://www.w3.org/TR/2001/REC-SVG-20010904/DTD/svg10.dtd">
<svg version="1.0" xmlns="http://www.w3.org/2000/svg"
 width="1080.000000pt" height="1080.000000pt" viewBox="0 0 1080.000000 1080.000000"
 preserveAspectRatio="xMidYMid meet">

<g transform="translate(0.000000,1080.000000) scale(0.100000,-0.100000)"
fill="#000000" stroke="none">
<path d="M622 10299 c-45 -13 -109 -80 -122 -127 -7 -28 -9 -1477 -8 -4793 l3
-4754 24 -38 c13 -21 42 -50 64 -65 l41 -27 4776 0 4776 0 41 27 c22 15 51 44
64 65 l24 38 0 4776 0 4775 -27 41 c-15 22 -44 51 -65 64 l-38 24 -4760 2
c-2984 1 -4772 -2 -4793 -8z m9488 -3155 l0 -2967 -468 7 c-418 7 -469 9 -483
24 -23 24 -1248 1747 -1255 1765 -4 10 224 271 703 802 389 433 710 792 711
796 2 5 -216 9 -491 9 l-494 0 -679 -738 -679 -739 -3 739 -2 738 -403 -2
-402 -3 -3 -1693 -2 -1692 -390 0 -390 0 0 1695 0 1695 -400 0 -400 0 -2
-1161 -3 -1161 -885 1161 -885 1161 -375 -2 -375 -3 -3 -1691 -2 -1691 -377
-6 c-207 -4 -513 -7 -680 -7 l-303 0 0 2965 0 2965 4710 0 4710 0 0 -2966z
m-6375 -2068 l840 -1106 1198 0 1197 0 0 513 1 512 175 195 c97 107 179 196
182 197 4 1 243 -317 532 -707 l525 -709 863 -1 862 0 0 -1640 0 -1640 -4710
0 -4710 0 0 1640 0 1640 1085 0 1085 0 0 1128 c0 1070 1 1126 18 1105 9 -12
395 -519 857 -1127z"/>
</g>
</svg>
