<?xml version="1.0" standalone="no"?>
<!DOCTYPE svg PUBLIC "-//W3C//DTD SVG 20010904//EN"
 "http://www.w3.org/TR/2001/REC-SVG-20010904/DTD/svg10.dtd">
<svg version="1.0" xmlns="http://www.w3.org/2000/svg"
 width="1080.000000pt" height="1080.000000pt" viewBox="0 0 1080.000000 1080.000000"
 preserveAspectRatio="xMidYMid meet">

<g transform="translate(0.000000,1080.000000) scale(0.100000,-0.100000)"
fill="#000000" stroke="none">
<path d="M2511 9346 c-13 -7 -30 -24 -37 -37 -11 -20 -13 -705 -14 -3917 0
-4239 -4 -3933 55 -3960 38 -17 5312 -17 5350 0 59 27 55 -278 55 3958 0 4236
4 3931 -55 3958 -40 19 -5320 17 -5354 -2z m5209 -1976 l0 -1790 -565 0 -565
0 0 1480 0 1480 -350 0 -350 0 0 -1012 c0 -810 -3 -1010 -12 -1000 -7 7 -355
462 -773 1010 l-760 997 -327 3 -328 2 -2 -1477 -3 -1478 -512 -3 -513 -2 0
1790 0 1790 2530 0 2530 0 0 -1790z m-2579 -1000 l744 -979 918 -1 917 0 0
-1885 0 -1885 -609 0 -609 0 -551 774 c-303 426 -551 777 -551 780 0 4 279
317 620 696 341 379 620 692 620 695 0 3 -193 5 -430 5 l-429 0 -593 -644
-593 -645 -3 645 -2 644 -350 0 -350 0 0 -1475 0 -1475 -615 0 -615 0 0 1885
0 1885 865 0 865 0 0 980 c0 539 2 980 3 980 2 0 339 -441 748 -980z m153
-4233 c207 -279 376 -509 376 -512 0 -3 -243 -5 -540 -5 l-540 0 0 346 0 345
157 175 c86 96 159 171 163 167 4 -4 177 -236 384 -516z"/>
</g>
</svg>
